<?xml version="1.0" encoding="UTF-8"?>
<svg width="480px" height="236px" viewBox="0 0 480 236" version="1.1" xmlns="http://www.w3.org/2000/svg" xmlns:xlink="http://www.w3.org/1999/xlink">
    <title>Homepage_A1C_Infographic-Desktop</title>
    <g id="Consumer---English" stroke="none" stroke-width="1" fill="none" fill-rule="evenodd">
        <g id="C.0.0-Consumer-Home" transform="translate(-594, -1125)" fill-rule="nonzero">
            <g id="Homepage_A1C_Infographic-Desktop" transform="translate(594, 1125)">
                <polygon id="Path" fill="#5D0096" points="470.116383 109.195632 470.116383 103.505005 473.554163 103.505005 473.554163 109.195632 478.925694 107.424022 480 110.698817 474.628469 112.416742 477.958818 117.033667 475.165622 119.073703 471.835273 114.510464 468.504924 119.073703 465.711728 117.033667 469.042077 112.416742 463.670546 110.698817 464.744852 107.424022"></polygon>
                <path d="M293.607878,236 L4.08236347,236 C2.09489705,236 0.48343778,234.389445 0.48343778,232.403094 L0.48343778,189.293904 C0.48343778,187.307552 2.09489705,185.696997 4.08236347,185.696997 L313.96598,185.696997 C316.59803,185.696997 318.370636,188.434941 317.242614,190.850773 L296.938227,233.959964 C296.293644,235.194722 295.004476,236 293.607878,236 L293.607878,236 Z" id="Path" fill="#D4B8E0"></path>
                <g id="Group" transform="translate(0.8594, 102.7534)" fill="#5D0096">
                    <path d="M0,69.0391265 L25.568487,1.61055505 L49.6866607,1.61055505 L75.2014324,69.0391265 L52.4261415,69.0391265 L48.5049239,57.4968153 L26.3742167,57.4968153 L22.4529991,69.0391265 L0,69.0391265 L0,69.0391265 Z M32.4440466,39.5122839 L42.4888093,39.5122839 L37.4932856,24.6951774 L32.4440466,39.5122839 Z" id="Shape"></path>
                    <polygon id="Path" points="82.5604297 29.0436761 70.259624 33.499545 70.259624 13.3676069 104.100269 0 104.100269 68.9854413 82.5604297 68.9854413"></polygon>
                    <path d="M175.64906,19.0582348 L157.009848,28.9363057 C154.592659,23.5141037 150.241719,20.9372157 144.601611,20.9372157 C137.188899,20.9372157 131.602507,26.8425842 131.602507,35.2711556 C131.602507,45.6860783 138.800358,49.6050955 144.762757,49.6050955 C150.134288,49.6050955 154.861235,47.0282075 157.600716,41.6596906 L175.810206,52.8262056 C169.042077,63.455869 158.728738,70.2202002 144.601611,70.2202002 C123.921218,70.2202002 109.310654,55.9399454 109.310654,35.2711556 C109.310654,14.6023658 123.921218,0.32211101 144.601611,0.32211101 C158.2453,0.32211101 169.794091,7.24749773 175.64906,19.0582348 L175.64906,19.0582348 Z" id="Path"></path>
                </g>
                <path d="M264.225604,153.163785 L242.417189,174.959964 C241.557744,175.818926 240.107431,175.818926 239.247986,174.959964 L217.43957,153.163785 C216.042972,151.767971 217.009848,149.352138 219.05103,149.352138 L262.66786,149.352138 C264.601611,149.352138 265.622202,151.767971 264.225604,153.163785" id="Path" fill="#F94242"></path>
                <path d="M436.329454,111.289354 C436.329454,116.013649 432.730528,119.55687 427.949866,119.55687 C423.169203,119.55687 419.570278,116.067334 419.570278,111.289354 C419.570278,106.511374 423.169203,103.075523 427.949866,103.075523 C432.730528,103.075523 436.329454,106.565059 436.329454,111.289354 Z M425.747538,111.289354 C425.747538,112.631483 426.660698,113.651501 428.003581,113.651501 C429.346464,113.651501 430.205909,112.631483 430.205909,111.289354 C430.205909,109.947225 429.292748,108.927207 428.003581,108.927207 C426.714414,108.927207 425.747538,110.00091 425.747538,111.289354 Z M444.870188,103.55869 L452.444047,103.55869 L434.019696,130.508644 L426.445837,130.508644 L444.870188,103.55869 Z M459.15846,122.724295 C459.15846,127.44859 455.559534,130.991811 450.778872,130.991811 C445.998209,130.991811 442.399284,127.502275 442.399284,122.724295 C442.399284,117.946315 445.998209,114.456779 450.778872,114.456779 C455.559534,114.456779 459.15846,118 459.15846,122.724295 Z M448.576544,122.724295 C448.576544,124.066424 449.489705,125.086442 450.778872,125.086442 C452.068039,125.086442 453.034915,124.066424 453.034915,122.724295 C453.034915,121.382166 452.121755,120.362147 450.778872,120.362147 C449.435989,120.362147 448.576544,121.435851 448.576544,122.724295 Z" id="Shape" fill="#5D0096"></path>
                <polygon id="Path" fill="#5D0095" points="311.387645 234.228389 353.876455 142.319381 304.458371 142.319381 304.458371 103.451319 406.839749 103.451319 406.839749 138.131938 364.834378 234.228389"></polygon>
                <g id="Group" transform="translate(188.8093, 113.8126)" fill="#5D0096">
                    <path d="M18.6929275,12.4549591 C18.6929275,18.1992721 15.4162936,21.4203822 9.34646374,21.4203822 C3.27663384,21.4203822 0,18.1992721 0,12.4549591 L0,0 L5.74753805,0 L5.74753805,12.2939035 C5.74753805,14.7097361 7.14413608,15.944495 9.34646374,15.944495 C11.5487914,15.944495 12.9453894,14.7097361 12.9453894,12.2939035 L12.9453894,0 L18.6929275,0 L18.6929275,12.4549591 Z" id="Path"></path>
                    <polygon id="Path" points="41.5219338 21.044586 35.9355416 21.044586 27.2873769 9.23384895 27.2873769 21.044586 21.5398389 21.044586 21.5398389 0 27.126231 0 35.7743957 11.810737 35.7743957 0 41.4682184 0 41.4682184 21.044586"></polygon>
                    <path d="M64.7269472,10.522293 C64.7269472,16.8571429 60.3760072,21.044586 53.8227395,21.044586 L44.529991,21.044586 L44.529991,0 L53.8227395,0 C60.3760072,0 64.7269472,4.18744313 64.7269472,10.522293 Z M50.2238138,5.20746133 L50.2238138,15.7297543 L53.6615936,15.7297543 C57.0993733,15.7297543 58.7645479,13.4749773 58.7645479,10.4686078 C58.7645479,7.40855323 57.0993733,5.20746133 53.6615936,5.20746133 L50.2238138,5.20746133 Z" id="Shape"></path>
                    <polygon id="Path" points="83.4198747 21.044586 66.9829902 21.044586 66.9829902 0 83.4198747 0 83.4198747 5.10009099 72.6768129 5.10009099 72.6768129 7.89171975 82.6678603 7.89171975 82.6678603 12.9918107 72.6768129 12.9918107 72.6768129 15.9981802 83.4198747 15.9981802"></polygon>
                    <path d="M103.670546,6.97907188 C103.670546,10.200182 101.79051,12.5623294 98.2452999,13.3139217 L103.992838,21.044586 L97.2784244,21.044586 L92.2291853,13.5823476 L91.9068935,13.5823476 L91.9068935,21.044586 L86.2130707,21.044586 L86.2130707,0 L95.6132498,0 C100.87735,0 103.670546,2.73794359 103.670546,6.97907188 Z M91.8531782,5.10009099 L91.8531782,8.85805278 L95.4521038,8.85805278 C96.8487019,8.85805278 97.9230081,8.26751592 97.9230081,6.97907188 C97.9230081,5.69062784 96.9024172,5.10009099 95.4521038,5.10009099 L91.8531782,5.10009099 Z" id="Shape"></path>
                </g>
                <g id="Group" fill="#5D0096">
                    <path d="M22.4529991,8.80436761 C22.4529991,11.9717925 20.8952551,14.2802548 18.1020591,15.622384 C21.2712623,16.910828 23.0438675,19.3266606 23.0438675,22.4404004 C23.0438675,28.6141947 17.1888988,31.5131938 10.957923,31.5131938 C6.28469114,31.5131938 2.47090421,29.9026388 0,27.0036397 L4.45837064,21.7961783 C6.12354521,23.5141037 8.21844226,24.4267516 10.5282005,24.4267516 C12.8379588,24.4267516 14.7179946,23.5677889 14.7179946,21.7424932 C14.7179946,19.9708826 12.5693823,19.1119199 9.99104745,19.1119199 L6.6606983,19.1119199 L6.6606983,12.1865332 L10.0984781,12.1865332 C12.4619517,12.1865332 14.2345568,11.2738854 14.2345568,9.60964513 C14.2345568,7.99909008 12.7842435,7.14012739 10.5819158,7.14012739 C7.78871979,7.14012739 5.80125336,8.37488626 4.40465533,9.87807097 L0.107430618,4.56323931 C2.63205013,1.93266606 5.85496867,0 10.8504924,0 C17.6186213,0 22.4529991,3.48953594 22.4529991,8.80436761 Z" id="Path"></path>
                    <path d="M66.4995524,15.7834395 C66.4995524,24.8562329 59.8388541,31.566879 50.438675,31.566879 C41.038496,31.566879 34.3777977,24.8562329 34.3777977,15.7834395 C34.3777977,6.71064604 41.038496,0 50.438675,0 C59.8388541,0 66.4995524,6.71064604 66.4995524,15.7834395 Z M42.9185318,15.7834395 C42.9185318,20.4540491 45.9803044,23.6214741 50.438675,23.6214741 C54.8970457,23.6214741 57.9588183,20.400364 57.9588183,15.7834395 C57.9588183,11.1128298 54.8970457,7.94540491 50.438675,7.94540491 C45.9803044,7.89171975 42.9185318,11.1128298 42.9185318,15.7834395 Z" id="Shape"></path>
                    <path d="M96.4726947,18.5750682 C96.4726947,26.8425842 91.7457475,31.566879 82.9901522,31.566879 C74.2345568,31.566879 69.5076097,26.8962693 69.5076097,18.5750682 L69.5076097,0.590536852 L77.7797672,0.590536852 L77.7797672,18.3603276 C77.7797672,21.8498635 79.7672337,23.6751592 82.9901522,23.6751592 C86.1593554,23.6751592 88.2005372,21.8498635 88.2005372,18.3603276 L88.2005372,0.590536852 L96.4726947,0.590536852 L96.4726947,18.5750682 Z" id="Path"></path>
                </g>
                <polygon id="Path" fill="#5D0096" points="124.458371 8.16014559 115.810206 8.16014559 115.810206 30.9763421 107.538048 30.9763421 107.538048 8.16014559 98.8898836 8.16014559 98.8898836 0.536851683 124.458371 0.536851683"></polygon>
                <g id="Group" transform="translate(134.5031, 0)" fill="#5D0096">
                    <path d="M32.1217547,15.7834395 C32.1217547,24.8562329 25.4610564,31.566879 16.0608774,31.566879 C6.6606983,31.566879 0,24.8562329 0,15.7834395 C0,6.71064604 6.6606983,0 16.0608774,0 C25.4610564,0 32.1217547,6.71064604 32.1217547,15.7834395 Z M8.4870188,15.7834395 C8.4870188,20.4540491 11.5487914,23.6214741 16.007162,23.6214741 C20.4655327,23.6214741 23.5273053,20.400364 23.5273053,15.7834395 C23.5273053,11.1128298 20.4655327,7.94540491 16.007162,7.94540491 C11.6025067,7.89171975 8.4870188,11.1128298 8.4870188,15.7834395 Z" id="Shape"></path>
                    <polygon id="Path" points="57.8513876 19.9171975 43.6168308 19.9171975 43.6168308 30.9763421 35.3446732 30.9763421 35.3446732 0.536851683 58.9256938 0.536851683 58.9256938 7.89171975 43.6168308 7.89171975 43.6168308 12.5623294 57.8513876 12.5623294"></polygon>
                    <polygon id="Path" points="91.1011638 18.6824386 94.5389436 18.6824386 94.5389436 26.0909918 91.1011638 26.0909918 91.1011638 30.9763421 83.0975828 30.9763421 83.0975828 26.0909918 69.7761862 26.0909918 69.7761862 20.6151046 79.12265 0.590536852 87.8782453 0.590536852 79.3912265 18.6824386 83.1512981 18.6824386 83.1512981 15.9981802 85.568487 10.7370337 91.2085944 10.7370337 91.2085944 18.6824386"></polygon>
                    <path d="M114.467323,21.4203822 L114.467323,30.9763421 L106.195166,30.9763421 L106.195166,0.536851683 L119.785139,0.536851683 C127.520143,0.536851683 131.602507,4.77797998 131.602507,11.0591447 C131.602507,17.1792539 127.520143,21.366697 119.892569,21.366697 L114.467323,21.366697 L114.467323,21.4203822 Z M114.467323,7.99909008 L114.467323,14.1728844 L119.677708,14.1728844 C121.71889,14.1728844 123.222919,13.0454959 123.222919,11.1128298 C123.222919,9.18016379 121.71889,7.99909008 119.677708,7.99909008 L114.467323,7.99909008 Z" id="Shape"></path>
                </g>
                <polygon id="Path" fill="#5D0096" points="293.01701 30.9763421 269.221128 30.9763421 269.221128 0.536851683 293.01701 0.536851683 293.01701 7.89171975 277.493286 7.89171975 277.493286 11.9181074 291.942704 11.9181074 291.942704 19.2729754 277.493286 19.2729754 277.493286 23.6214741 293.01701 23.6214741"></polygon>
                <g id="Group" transform="translate(295.3805, 0)" fill="#5D0096">
                    <path d="M32.1217547,15.7834395 C32.1217547,24.8562329 25.4610564,31.566879 16.0608774,31.566879 C6.6606983,31.566879 0,24.8562329 0,15.7834395 C0,6.71064604 6.6606983,0 16.0608774,0 C25.4073411,0 32.1217547,6.71064604 32.1217547,15.7834395 Z M8.54073411,15.7834395 C8.54073411,20.4540491 11.6025067,23.6214741 16.0608774,23.6214741 C20.519248,23.6214741 23.5810206,20.400364 23.5810206,15.7834395 C23.5810206,11.1128298 20.519248,7.94540491 16.0608774,7.94540491 C11.6025067,7.89171975 8.54073411,11.1128298 8.54073411,15.7834395 Z" id="Shape"></path>
                    <path d="M43.6168308,21.4203822 L43.6168308,30.9763421 L35.3446732,30.9763421 L35.3446732,0.536851683 L48.9346464,0.536851683 C56.6696509,0.536851683 60.7520143,4.77797998 60.7520143,11.0591447 C60.7520143,17.1792539 56.6696509,21.366697 49.042077,21.366697 L43.6168308,21.366697 L43.6168308,21.4203822 Z M43.6168308,7.99909008 L43.6168308,14.1728844 L48.8272158,14.1728844 C50.8683975,14.1728844 52.3724261,13.0454959 52.3724261,11.1128298 C52.3724261,9.18016379 50.8683975,7.99909008 48.8272158,7.99909008 L43.6168308,7.99909008 Z" id="Shape"></path>
                    <polygon id="Path" points="86.8039391 30.9763421 63.8675022 30.9763421 63.8675022 0.536851683 72.1396598 0.536851683 72.1396598 23.3530482 86.8039391 23.3530482 86.8039391 30.9763421"></polygon>
                    <polygon id="Path" points="113.231871 30.9763421 89.4359893 30.9763421 89.4359893 0.536851683 113.231871 0.536851683 113.231871 7.89171975 97.7081468 7.89171975 97.7081468 11.9181074 112.10385 11.9181074 112.10385 19.2729754 97.6544315 19.2729754 97.6544315 23.6214741 113.178156 23.6214741 113.178156 30.9763421"></polygon>
                </g>
                <path d="M26.965085,220.377616 L24.2256043,220.377616 L21.9695613,214.848044 L12.1396598,214.848044 L9.93733214,220.377616 L7.30528201,220.377616 L15.5774396,200.084622 L18.7466428,200.084622 L26.965085,220.377616 Z M13.1065354,212.432211 L21.0026858,212.432211 L17.0277529,202.607825 L13.1065354,212.432211 Z" id="Shape" fill="#5D0096"></path>
                <g id="Group" transform="translate(28.8988, 200.0309)" fill="#5D0096">
                    <polygon id="Path" points="17.1888988 20.3466788 14.8791406 20.3466788 2.57833483 4.4021838 2.57833483 20.3466788 0 20.3466788 0 0 2.30975828 0 14.610564 15.944495 14.610564 0 17.1888988 0 17.1888988 20.3466788"></polygon>
                    <path d="M29.1136974,0.0536851683 C35.6669651,0.0536851683 39.9104745,4.02638763 39.9104745,10.200182 C39.9104745,16.3739763 35.7206804,20.3466788 29.1136974,20.3466788 L21.3786929,20.3466788 L21.3786929,0.0536851683 L29.1136974,0.0536851683 Z M23.9570278,2.46951774 L23.9570278,17.9308462 L29.1674127,17.9308462 C34.4852283,17.9308462 37.2784244,14.8171065 37.2784244,10.200182 C37.2784244,5.58325751 34.5389436,2.46951774 29.1674127,2.46951774 L23.9570278,2.46951774 Z" id="Shape"></path>
                </g>
                <g id="Group" transform="translate(77.9946, 200.0846)" fill="#5D0096">
                    <polygon id="Path" points="23.4198747 20.2929936 17.9409132 20.2929936 17.9409132 7.56960874 14.6642793 18.4140127 8.80931065 18.4140127 5.53267681 7.56960874 5.53267681 20.2929936 0 20.2929936 0 0 7.62757386 0 11.7099373 12.2402184 15.7923008 0 23.4198747 0"></polygon>
                    <path d="M46.8397493,20.2929936 L40.9847807,20.2929936 L39.6418979,16.4276615 L32.0680394,16.4276615 L30.7251567,20.2929936 L24.9776186,20.2929936 L32.6589078,0 L39.1584602,0 L46.8397493,20.2929936 Z M33.7869293,11.488626 L37.9767234,11.488626 L35.8818263,5.47588717 L33.7869293,11.488626 Z" id="Shape"></path>
                    <polygon id="Path" points="53.8764548 20.2929936 48.343778 20.2929936 48.343778 0 53.8764548 0"></polygon>
                    <polygon id="Path" points="76.0608774 20.2929936 70.6893465 20.2929936 62.3097583 8.85805278 62.3097583 20.2929936 56.7770815 20.2929936 56.7770815 0 62.1486124 0 70.5282005 11.4349409 70.5282005 0 76.0608774 0"></polygon>
                </g>
                <polygon id="Path" fill="#5D0096" points="172.855864 205.131028 167.054611 205.131028 167.054611 220.377616 161.521934 220.377616 161.521934 205.131028 155.72068 205.131028 155.72068 200.030937 172.802149 200.030937 172.802149 205.131028"></polygon>
                <g id="Group" transform="translate(170.8147, 200.0846)" fill="#5D0096">
                    <path d="M21.8621307,20.2929936 L16.007162,20.2929936 L14.6642793,16.4276615 L7.09042077,16.4276615 L5.74753805,20.2929936 L0,20.2929936 L7.68128917,0 L14.1808415,0 L21.8621307,20.2929936 Z M8.75559534,11.488626 L12.9453894,11.488626 L10.8504924,5.47588717 L8.75559534,11.488626 Z" id="Shape"></path>
                    <polygon id="Path" points="28.8988362 20.2929936 23.3661594 20.2929936 23.3661594 0 28.8988362 0"></polygon>
                    <polygon id="Path" points="51.0295434 20.2929936 45.6580125 20.2929936 37.2784244 8.85805278 37.2784244 20.2929936 31.7457475 20.2929936 31.7457475 0 37.1172784 0 45.4968666 11.4349409 45.4968666 0 51.0295434 0"></polygon>
                    <polygon id="Path" points="69.8299015 20.2929936 53.9301701 20.2929936 53.9301701 0 69.8299015 0 69.8299015 4.88535032 59.4628469 4.88535032 59.4628469 7.56960874 69.0778872 7.56960874 69.0778872 12.4549591 59.4628469 12.4549591 59.4628469 15.3539581 69.8299015 15.3539581"></polygon>
                    <path d="M91.9606088,10.1464968 C91.9606088,16.266606 87.7708147,20.2929936 81.4324082,20.2929936 L72.4619517,20.2929936 L72.4619517,0 L81.4324082,0 C87.7708147,0 91.9606088,4.02638763 91.9606088,10.1464968 Z M77.9409132,5.04640582 L77.9409132,15.2465878 L81.2712623,15.2465878 C84.6016115,15.2465878 86.2130707,13.0991811 86.2130707,10.1464968 C86.2130707,7.19381256 84.6016115,5.04640582 81.2712623,5.04640582 L77.9409132,5.04640582 Z" id="Shape"></path>
                </g>
                <polygon id="Path" fill="#5D0096" points="274.861235 220.377616 272.282901 220.377616 272.282901 200.084622 274.861235 200.084622"></polygon>
                <polygon id="Path" fill="#5D0096" points="294.037601 202.500455 287.162041 202.500455 287.162041 220.377616 284.583706 220.377616 284.583706 202.500455 277.654432 202.500455 277.654432 200.084622 294.091316 200.084622 294.091316 202.500455"></polygon>
                <polygon id="Path" fill="#5D0096" points="470.116383 109.195632 470.116383 103.505005 473.554163 103.505005 473.554163 109.195632 478.925694 107.424022 480 110.698817 474.628469 112.416742 477.958818 117.033667 475.165622 119.073703 471.835273 114.510464 468.504924 119.073703 465.711728 117.033667 469.042077 112.416742 463.670546 110.698817 464.744852 107.424022"></polygon>
                <path d="M365.962399,236 L308.540734,236 L351.083259,144.090992 L302.685765,144.090992 L302.685765,101.679709 L408.612355,101.679709 L408.612355,138.507734 L365.962399,236 L365.962399,236 Z M314.180842,232.456779 L363.706356,232.456779 L405.067144,137.756142 L405.067144,105.22293 L306.230976,105.22293 L306.230976,140.547771 L356.669651,140.547771 L314.180842,232.456779 L314.180842,232.456779 Z" id="Shape" fill="#FFFFFF"></path>
                <path d="M365.962399,236 L308.540734,236 L351.083259,144.090992 L302.685765,144.090992 L302.685765,101.679709 L408.612355,101.679709 L408.612355,138.507734 L365.962399,236 L365.962399,236 Z M314.180842,232.456779 L363.706356,232.456779 L405.067144,137.756142 L405.067144,105.22293 L306.230976,105.22293 L306.230976,140.547771 L356.669651,140.547771 L314.180842,232.456779 L314.180842,232.456779 Z" id="Shape" fill="#D4B8E0"></path>
                <g id="Group" transform="translate(0.5372, 45.2029)" fill="#965CB5">
                    <path d="M18.961504,0 C29.7582811,0 35.5058192,5.36851683 35.5058192,13.9581438 C35.5058192,20.8835305 31.1548791,25.7151956 23.312444,27.0036397 L35.828111,43.6460419 L23.4198747,43.6460419 L11.9247986,27.3257507 L10.4207699,27.3257507 L10.4207699,43.6460419 L0,43.6460419 L0,0 L18.961504,0 L18.961504,0 Z M10.4207699,9.44858963 L10.4207699,18.5213831 L18.8540734,18.5213831 C22.614145,18.5213831 24.9239033,17.0718835 24.9239033,13.9581438 C24.9239033,10.8980892 22.5604297,9.44858963 18.8540734,9.44858963 L10.4207699,9.44858963 Z" id="Shape"></path>
                    <polygon id="Path" points="75.4162936 43.6460419 42.0053715 43.6460419 42.0053715 0 75.308863 0 75.308863 9.39490446 52.4261415 9.39490446 52.4261415 16.910828 73.9659803 16.910828 73.9659803 26.2520473 52.4261415 26.2520473 52.4261415 34.2511374 75.4162936 34.2511374"></polygon>
                </g>
                <path d="M125.425246,88.8489536 L114.306177,88.8489536 L110.975828,79.6687898 L93.6257833,79.6687898 L90.2954342,88.8489536 L79.3912265,88.8489536 L96.1504029,45.2029117 L108.612355,45.2029117 L125.425246,88.8489536 Z M97.0098478,70.2738854 L107.591764,70.2738854 L102.273948,55.5641492 L97.0098478,70.2738854 Z" id="Shape" fill="#965CB5"></path>
                <g id="Group" transform="translate(125.2104, 44.5029)" fill="#965CB5">
                    <path d="M42.3276634,10.4170733 L33.1960609,15.6782198 C30.8863026,11.920258 27.3410922,9.88022157 22.8290063,9.88022157 C15.9534467,9.88022157 10.8504924,15.0339977 10.8504924,22.5499213 C10.8504924,30.6563817 16.4368845,35.219621 22.8827216,35.219621 C27.2873769,35.219621 30.9400179,33.1795846 33.4109221,29.475308 L41.9516562,35.541732 C37.9767234,41.5007857 31.3160251,45.2050623 22.9901522,45.2050623 C9.50760967,45.2050623 0,35.8101579 0,22.6036065 C0,9.39705506 9.50760967,0.00215059873 22.9901522,0.00215059873 C31.2623098,-0.105219738 38.6213071,3.81379755 42.3276634,10.4170733 Z" id="Path"></path>
                    <polygon id="Path" points="58.5496867 17.5035155 76.9203223 17.5035155 76.9203223 0.700057787 87.3410922 0.700057787 87.3410922 44.3460996 76.9203223 44.3460996 76.9203223 27.1668458 58.5496867 27.1668458 58.5496867 44.3460996 48.1289167 44.3460996 48.1289167 0.700057787 58.5496867 0.700057787"></polygon>
                    <polygon id="Path" points="128.70188 44.3460996 95.2909579 44.3460996 95.2909579 0.700057787 128.594449 0.700057787 128.594449 10.0949622 105.711728 10.0949622 105.711728 17.6108858 127.251567 17.6108858 127.251567 26.9521051 105.711728 26.9521051 105.711728 34.9511952 128.70188 34.9511952"></polygon>
                    <path d="M154.485228,0.700057787 C168.128917,0.700057787 177.153089,9.34336989 177.153089,22.4962361 C177.153089,35.6491024 168.128917,44.2924145 154.485228,44.2924145 L135.792301,44.2924145 L135.792301,0.646372619 L154.485228,0.646372619 L154.485228,0.700057787 Z M146.213071,10.3633881 L146.213071,34.7364545 L154.270367,34.7364545 C162.381379,34.7364545 166.248881,29.5826784 166.248881,22.5499213 C166.248881,15.4097939 162.327663,10.3633881 154.270367,10.3633881 L146.213071,10.3633881 Z" id="Shape"></path>
                </g>
                <g id="Group" transform="translate(318.0483, 45.2029)" fill="#965CB5">
                    <path d="M46.0340197,43.6460419 L34.9149508,43.6460419 L31.5846016,34.4658781 L14.2345568,34.4658781 L10.9042077,43.6460419 L0,43.6460419 L16.7591764,0 L29.221128,0 L46.0340197,43.6460419 Z M17.6723366,25.0709736 L28.2542525,25.0709736 L22.9364369,10.3612375 L17.6723366,25.0709736 Z" id="Shape"></path>
                    <polygon id="Path" points="90.7251567 43.6460419 80.7341092 43.6460419 60.8594449 17.0181984 60.8594449 43.6460419 50.438675 43.6460419 50.438675 0 60.4297225 0 80.3043868 26.6278435 80.3043868 1.52582426e-14 90.7251567 1.52582426e-14"></polygon>
                </g>
                <polygon id="Path" fill="#5D0095" points="298.764548 208.405823 298.764548 204.540491 296.669651 204.540491 296.669651 202.124659 298.764548 202.124659 298.764548 199.977252 301.289167 199.977252 301.289167 202.124659 303.384064 202.124659 303.384064 204.540491 301.289167 204.540491 301.289167 208.405823"></polygon>
                <path d="M436.329454,111.289354 C436.329454,116.013649 432.730528,119.55687 427.949866,119.55687 C423.169203,119.55687 419.570278,116.067334 419.570278,111.289354 C419.570278,106.511374 423.169203,103.075523 427.949866,103.075523 C432.730528,103.075523 436.329454,106.565059 436.329454,111.289354 Z M425.747538,111.289354 C425.747538,112.631483 426.660698,113.651501 428.003581,113.651501 C429.346464,113.651501 430.205909,112.631483 430.205909,111.289354 C430.205909,109.947225 429.292748,108.927207 428.003581,108.927207 C426.714414,108.927207 425.747538,110.00091 425.747538,111.289354 Z M444.870188,103.55869 L452.444047,103.55869 L434.019696,130.508644 L426.445837,130.508644 L444.870188,103.55869 Z M459.15846,122.724295 C459.15846,127.44859 455.559534,130.991811 450.778872,130.991811 C445.998209,130.991811 442.399284,127.502275 442.399284,122.724295 C442.399284,117.946315 445.998209,114.456779 450.778872,114.456779 C455.559534,114.456779 459.15846,118 459.15846,122.724295 Z M448.576544,122.724295 C448.576544,124.066424 449.489705,125.086442 450.778872,125.086442 C452.068039,125.086442 453.034915,124.066424 453.034915,122.724295 C453.034915,121.382166 452.121755,120.362147 450.778872,120.362147 C449.435989,120.362147 448.576544,121.435851 448.576544,122.724295 Z" id="Shape" fill="#5D0096"></path>
                <polygon id="Path" fill="#5D0096" points="470.116383 109.195632 470.116383 103.505005 473.554163 103.505005 473.554163 109.195632 478.925694 107.424022 480 110.698817 474.628469 112.416742 477.958818 117.033667 475.165622 119.073703 471.835273 114.510464 468.504924 119.073703 465.711728 117.033667 469.042077 112.416742 463.670546 110.698817 464.744852 107.424022"></polygon>
            </g>
        </g>
    </g>
</svg>