<svg width="176" height="45" viewBox="0 0 176 45" fill="none" xmlns="http://www.w3.org/2000/svg">
<g clip-path="url(#clip0_1695_17193)">
<path d="M56.9504 26.2695C57.4289 25.9275 57.945 25.53 58.4281 25.149C62.1426 22.1775 64.9795 18.918 65.5406 17.115C65.5586 17.058 65.6081 16.8915 65.6081 16.758C65.6081 16.572 65.5195 16.4415 65.35 16.4415C63.6458 16.4415 58.1745 21.8895 56.8514 26.304V26.3205L56.9489 26.2695H56.9504ZM43.237 25.641C48.4082 21.735 53.8419 16.044 54.421 13.707C54.436 13.632 54.457 13.5555 54.454 13.485C54.445 13.3305 54.361 13.1925 54.166 13.1925C52.5308 13.1925 44.9517 20.187 43.237 25.641ZM11.4851 29.0775C10.1199 28.1295 8.00765 27.3015 6.12039 27.3015C4.23313 27.3015 3.12148 28.02 3.12148 28.929C3.12148 29.9685 4.54217 30.4245 6.13239 30.4245C8.05865 30.4245 9.80939 29.9025 11.4851 29.076M27.3273 16.8165C31.0328 15.6285 34.5493 13.1415 37.1732 10.545C39.599 8.142 41.5388 5.2905 41.5388 3.879C41.5388 3.555 41.3062 3.36 41.0152 3.36C39.893 3.36 37.7642 4.851 34.8973 7.722C32.6665 9.96 30.0667 13.0155 27.3273 16.8165ZM82.5109 25.785C79.3289 28.9545 69.4051 37.6695 66.7797 45L63.5273 44.1615C64.5909 41.1255 67.7924 36.402 71.3584 32.7585C70.6008 33.045 69.8086 33.15 69.1726 33.15C68.2094 33.15 67.4593 32.859 67.0078 32.3115C66.6852 31.9185 66.5202 31.404 66.5202 30.7935C66.5202 30.6615 66.5307 30.528 66.5487 30.378C63.4148 32.289 60.8944 33.1485 58.4281 33.1485C56.5078 33.1485 54.8891 32.31 54.1435 30.843C51.0336 32.3865 48.0496 33.1485 45.5578 33.1485C43.237 33.1485 41.3662 32.229 40.5081 30.5535C37.3622 32.3235 34.6903 33.1485 32.56 33.1485C31.3359 33.1485 30.3622 32.8095 29.7381 32.166C29.2806 31.6935 29.0375 31.056 29.0045 30.318C26.9883 31.647 24.0434 33.1485 21.0234 33.1485C18.0035 33.1485 15.8642 32.0895 14.256 31.0365C11.6937 32.457 8.87177 33.1485 5.88936 33.1485C3.63455 33.1485 -0.00195312 32.2095 -0.00195312 28.977C-0.00195312 26.3655 2.72092 24.597 6.36192 24.597C9.45985 24.597 12.4438 25.902 14.316 27.258C16.0938 25.842 17.957 23.862 20.1578 21.0615C19.6732 21.0885 19.2007 21.1035 18.7371 21.1035C14.523 21.1035 11.0066 19.8615 9.0863 17.6865C8.04815 16.509 7.55759 15.1305 7.55759 13.6485C7.55759 7.7835 14.9596 3.237 21.433 2.5665C21.862 3.537 22.2431 4.2855 22.6392 5.1735C16.2423 5.916 10.915 9.705 10.915 13.4055C10.915 15.84 13.6484 18.282 19.4512 18.282C20.4429 18.282 21.4435 18.186 22.4261 18.051C27.5478 10.983 35.3954 0 42.1493 0C44.1491 0 45.1918 1.215 45.1918 2.841C45.1918 6.186 42.3174 9.786 40.4466 11.6625C37.5017 14.6205 32.1805 19.0215 24.7469 20.4795C21.8545 24.504 19.4782 27.174 17.1019 29.1015C18.5436 29.88 19.8923 30.3555 21.5035 30.3555C25.5046 30.3555 29.3856 26.691 32.4175 23.5845L32.524 23.481L34.8898 25.329L34.7788 25.4595C33.4406 26.997 32.2045 28.6215 32.2045 29.532C32.2045 30.2235 32.7881 30.36 33.2891 30.36C34.8223 30.36 37.1822 29.37 39.962 27.657V27.636C40.2696 20.766 49.6429 10.257 55.3316 10.257C56.9384 10.257 57.8595 11.0565 57.8595 12.459C57.8595 15.903 51.9202 23.289 43.2835 28.9395V28.944C43.7291 29.9055 44.7567 30.369 46.5044 30.369C47.8681 30.369 50.5325 29.763 53.7009 28.1055C54.0685 24.5445 56.0848 20.7225 58.6396 18C61.2065 15.2715 64.0824 13.497 66.5682 13.497C68.1014 13.497 69.006 14.34 69.006 15.6675C69.006 18.672 65.5196 23.8095 57.1214 29.1855C57.4965 29.907 58.2165 30.3615 59.3372 30.3615C61.8395 30.3615 66.2457 27.6915 69.6766 24.408L72.1415 26.325C71.0898 27.6015 70.0247 29.007 70.0577 29.814C70.0682 30.0765 70.2437 30.252 70.6578 30.252C73.1886 30.252 77.1702 26.9115 80.1571 23.9595L82.5109 25.7895V25.785ZM36.7186 18.894C37.8362 18.894 38.7379 19.8015 38.7379 20.9175C38.7379 22.0335 37.8362 22.941 36.7186 22.941C35.6009 22.941 34.6933 22.035 34.6933 20.9175C34.6933 19.8 35.5979 18.894 36.7186 18.894Z" fill="#E1251B"/>
<path d="M99.2564 11.6987C104.776 11.6987 107.581 15.0092 107.581 19.9907V24.4997C107.581 29.4497 104.711 32.6972 99.2249 32.6972H92.0029V11.6987H99.2564ZM95.1879 30.0182H99.0674C102.693 30.0182 104.365 27.7157 104.365 24.3737V20.0222C104.365 16.6487 102.662 14.3777 99.0359 14.3777H95.1879V30.0167V30.0182Z" fill="#E1251B"/>
<path d="M113.921 11.793V14.82H110.673V11.793H113.921ZM113.795 17.7525V32.6985H110.799V17.7525H113.795Z" fill="#E1251B"/>
<path d="M119.849 17.7525L120.101 21.2205C120.953 19.1085 122.276 17.532 124.61 17.532C125.02 17.532 125.366 17.5635 125.777 17.658V20.6535C125.336 20.559 124.957 20.496 124.453 20.496C122.087 20.496 120.321 22.356 120.321 24.564V32.6985H117.325V17.7525H119.849Z" fill="#E1251B"/>
<path d="M132.873 33.108C128.458 33.108 126.346 30.4275 126.346 26.424V24.2175C126.346 20.181 128.712 17.343 132.684 17.343C136.657 17.343 138.865 20.1495 138.865 24.027V25.9185H129.216V26.7705C129.216 29.1045 130.32 30.681 132.905 30.681C135.08 30.681 136.153 29.5455 136.153 28.095V28.0005H138.833V28.1895C138.833 30.996 136.69 33.108 132.873 33.108ZM129.216 24.0915H135.995V23.7135C135.995 21.3165 134.985 19.74 132.684 19.74C130.383 19.74 129.216 21.3165 129.216 23.808V24.0915Z" fill="#E1251B"/>
<path d="M150.185 27.528V27.4335H152.961V27.78C152.961 30.7125 151.006 33.108 147.095 33.108C142.963 33.108 140.693 30.4905 140.693 26.2665V24.249C140.693 20.0235 143.091 17.343 147.126 17.343C151.162 17.343 152.961 19.677 152.961 22.704V23.0505H150.185V22.9245C150.185 21.222 149.335 19.803 147.126 19.803C144.918 19.803 143.658 21.4425 143.658 23.997V26.4885C143.658 29.043 144.793 30.651 147.095 30.651C149.27 30.651 150.185 29.2635 150.185 27.5295V27.528Z" fill="#E1251B"/>
<path d="M156.367 17.7526V14.5996L159.362 13.7791V17.7526H163.4V20.1181H159.362V27.6226C159.362 29.7346 159.961 30.3661 161.886 30.3661H162.642V32.7316H161.191C157.88 32.7316 156.367 31.4071 156.367 28.1596V20.1196H153.971V17.7541H156.367V17.7526Z" fill="#E1251B"/>
<path d="M168.489 11.6956V12.6706H166.688V17.1931H165.639V12.6706H163.8V11.6956H168.488H168.489ZM171.137 11.6956L172.442 15.6481H172.48L173.767 11.6956H175.386V17.1931H174.375V12.8911H174.264L172.83 17.1931H171.965L170.531 12.8911H170.422V17.1931H169.466V11.6956H171.139H171.137Z" fill="#E1251B"/>
</g>
<defs>
<clipPath id="clip0_1695_17193">
<rect width="175.385" height="45" fill="white"/>
</clipPath>
</defs>
</svg>
