<?xml version="1.0" encoding="UTF-8"?>
<svg width="462px" height="151px" viewBox="0 0 462 151" version="1.1" xmlns="http://www.w3.org/2000/svg" xmlns:xlink="http://www.w3.org/1999/xlink">
    <title>1.1_Weight_Infographic-Desktop</title>
    <g id="Consumer---English" stroke="none" stroke-width="1" fill="none" fill-rule="evenodd">
        <g id="C.0.0-Consumer-Home" transform="translate(-603, -1757)" fill-rule="nonzero">
            <g id="1.1_Weight_Infographic-Desktop" transform="translate(603, 1757)">
                <g id="Group">
                    <g transform="translate(1.4843, 106.8549)" fill="#5D0096">
                        <path d="M36.6826485,25.3670424 C36.6826485,36.6713542 30.2315262,43.0781719 18.3413242,43.0781719 C6.45112224,43.0781719 0,36.6713542 0,25.3670424 L0,0.770275394 L11.2725966,0.770275394 L11.2725966,25.0391549 C11.2725966,29.8169441 13.9921364,32.2787027 18.3413242,32.2787027 C22.690512,32.2787027 25.4100519,29.8169441 25.4100519,25.0391549 L25.4100519,0.770275394 L36.6826485,0.770275394 L36.6826485,25.3670424 L36.6826485,25.3670424 L36.6826485,25.3670424 Z" id="Path"></path>
                        <path d="M53.7835719,29.2236239 L53.7835719,42.3078965 L42.5421151,42.3078965 L42.5421151,0.770275394 L61.0028084,0.770275394 C71.5332405,0.770275394 77.0657395,6.58377279 77.0657395,15.129666 C77.0657395,23.6755592 71.5332405,29.2236239 61.1481273,29.2236239 L53.7835719,29.2236239 Z M53.7835719,10.8879468 L53.7835719,19.3453624 L60.8834393,19.3453624 C63.6652587,19.3453624 65.7049136,17.8308345 65.7049136,15.1348706 C65.7049136,12.4389067 63.6652587,10.8931513 60.8834393,10.8931513 L53.7835719,10.8931513 L53.7835719,10.8879468 Z" id="Shape"></path>
                        <polygon id="Path" points="125.856568 11.1585841 114.080546 11.1585841 114.080546 42.313101 102.839089 42.313101 102.839089 11.1585841 91.0630659 11.1585841 91.0630659 0.775479957 125.856568 0.775479957"></polygon>
                        <path d="M170.17884,21.5416882 C170.17884,33.944163 161.096407,43.0833764 148.282392,43.0833764 C135.468377,43.0833764 126.391134,33.944163 126.391134,21.5416882 C126.391134,9.13921346 135.473567,0 148.282392,0 C161.091218,0 170.17884,9.13921346 170.17884,21.5416882 Z M138.078928,21.5416882 C138.078928,27.8912556 142.251657,32.2839072 148.287582,32.2839072 C154.323508,32.2839072 158.496237,27.8912556 158.496237,21.5416882 C158.496237,15.1921208 154.323508,10.7994692 148.287582,10.7994692 C142.251657,10.7994692 138.078928,15.1921208 138.078928,21.5416882 Z" id="Shape"></path>
                    </g>
                    <g transform="translate(0.5346, 39.1383)" fill="#5D0096">
                        <polygon id="Path" points="0 0.916003171 15.6840639 0.916003171 15.6840639 35.7813739 37.7881103 35.7813739 37.7881103 50.1719919 0 50.1719919"></polygon>
                        <path d="M89.9887438,25.5439975 C89.9887438,40.2520939 79.1469141,51.0827905 63.9247568,51.0827905 C48.7025995,51.0827905 37.8607697,40.2468893 37.8607697,25.5439975 C37.8607697,10.8411057 48.7025995,0 63.9247568,0 C79.1469141,0 89.9887438,10.8359011 89.9887438,25.5439975 Z M54.1001595,25.5439975 C54.1001595,31.737428 57.9926307,36.0259884 63.9247568,36.0259884 C69.8568829,36.0259884 73.7493541,31.7322235 73.7493541,25.5439975 C73.7493541,19.3557716 69.8568829,15.0620067 63.9247568,15.0620067 C57.9926307,15.0620067 54.1001595,19.3557716 54.1001595,25.5439975 L54.1001595,25.5439975 Z" id="Shape"></path>
                        <path d="M127.984453,18.2263813 C125.176683,16.3631476 117.879597,13.4069555 112.933564,13.4069555 C110.515042,13.4069555 109.212362,13.6880019 109.212362,15.0932341 C109.212362,16.1861924 110.82644,16.9928997 115.139298,17.7319477 L118.647712,18.3669045 C131.487677,20.6204805 135.240019,26.4912281 135.240019,33.3560473 C135.240019,46.8670941 124.050462,51.087995 113.561549,51.087995 C103.98607,51.087995 96.0558089,49.0478062 90.3364713,45.1756109 L96.9329124,32.2995209 C101.526028,35.219281 108.055,37.8944266 114.262194,37.8944266 C116.680716,37.8944266 117.806938,37.2594699 117.806938,36.0311929 C117.806938,34.6571882 115.876272,33.6735257 112.336718,33.0750009 L108.055,32.3359528 C96.2997371,30.295764 91.8830798,24.8413814 91.8830798,16.7170579 C91.8830798,5.84472478 100.970703,0.0416365078 112.300389,0.0416365078 C118.507583,0.0416365078 124.476039,0.109295833 134.752162,5.67297418 L127.979263,18.2315858 L127.984453,18.2315858 L127.984453,18.2263813 Z" id="Path"></path>
                        <polygon id="Path" points="135.603316 0.916003171 178.228471 0.916003171 178.228471 15.3066212 164.75533 15.3066212 164.75533 50.1719919 149.071266 50.1719919 149.071266 15.3066212 135.598126 15.3066212 135.598126 0.916003171 135.598126 0.916003171"></polygon>
                    </g>
                    <g fill="#965CB5">
                        <path d="M4.32842796,14.2188674 L4.32842796,22.1818495 L0,22.1818495 L0,0.400751387 L8.85926442,0.400751387 C14.0388461,0.400751387 16.7999056,3.10712439 16.7999056,7.3228208 C16.7999056,11.5385172 14.0388461,14.2136628 8.88521423,14.2136628 L4.32842796,14.2136628 L4.32842796,14.2188674 Z M4.32842796,4.41346982 L4.32842796,10.2633992 L8.78141499,10.2633992 C11.1376576,10.2633992 12.3624885,9.30055492 12.3624885,7.33843449 C12.3624885,5.37631407 11.1376576,4.41346982 8.78141499,4.41346982 L4.32842796,4.41346982 L4.32842796,4.41346982 Z" id="Shape"></path>
                        <polygon id="Path" points="36.7241681 22.1870541 20.4951583 22.1870541 20.4951583 0.405955951 36.5996091 0.405955951 36.5996091 4.38744701 24.8235862 4.38744701 24.8235862 9.21207734 36.0546631 9.21207734 36.0546631 13.1935684 24.8235862 13.1935684 24.8235862 18.2003585 36.7241681 18.2003585 36.7241681 22.1818495 36.7241681 22.1818495"></polygon>
                        <path d="M62.8037251,11.2939027 C62.8037251,17.7944025 58.0704801,22.5878055 51.3858096,22.5878055 C44.7011391,22.5878055 39.983464,17.7944025 39.983464,11.2939027 C39.983464,4.79340296 44.7011391,0 51.3858096,0 C58.0704801,0 62.8037251,4.79340296 62.8037251,11.2939027 Z M44.4987306,11.2939027 C44.4987306,15.5252128 47.3999191,18.4189501 51.3858096,18.4189501 C55.3717001,18.4189501 58.2728886,15.5252128 58.2728886,11.2939027 C58.2728886,7.06259263 55.38727,4.16885534 51.3858096,4.16885534 C47.3843492,4.16885534 44.4987306,7.06259263 44.4987306,11.2939027 Z" id="Shape"></path>
                        <path d="M71.0298142,14.2188674 L71.0298142,22.1818495 L66.7013862,22.1818495 L66.7013862,0.400751387 L75.5606507,0.400751387 C80.7402323,0.400751387 83.5012919,3.10712439 83.5012919,7.3228208 C83.5012919,11.5385172 80.7402323,14.2136628 75.5866005,14.2136628 L71.0298142,14.2136628 L71.0298142,14.2188674 Z M71.0298142,4.41346982 L71.0298142,10.2633992 L75.4828012,10.2633992 C77.8390438,10.2633992 79.0638747,9.30055492 79.0638747,7.33843449 C79.0638747,5.37631407 77.8390438,4.41346982 75.4828012,4.41346982 L71.0298142,4.41346982 L71.0298142,4.41346982 Z" id="Shape"></path>
                        <polygon id="Path" points="103.005167 22.1870541 87.1965445 22.1870541 87.1965445 0.405955951 91.5249725 0.405955951 91.5249725 18.1274946 103.005167 18.1274946 103.005167 22.1870541 103.005167 22.1870541"></polygon>
                        <polygon id="Path" points="122.197645 22.1870541 105.968636 22.1870541 105.968636 0.405955951 122.073086 0.405955951 122.073086 4.38744701 110.297064 4.38744701 110.297064 9.21207734 121.52814 9.21207734 121.52814 13.1935684 110.297064 13.1935684 110.297064 18.2003585 122.197645 18.2003585 122.197645 22.1818495 122.197645 22.1818495"></polygon>
                        <polygon id="Path" points="149.720012 4.46551546 142.988632 4.46551546 142.988632 22.1870541 138.660204 22.1870541 138.660204 4.46551546 131.928823 4.46551546 131.928823 0.405955951 149.725202 0.405955951 149.725202 4.46551546"></polygon>
                        <path d="M170.806826,22.1870541 L166.18257,22.1870541 L164.288234,17.1178093 L155.024152,17.1178093 L153.129816,22.1870541 L148.61455,22.1870541 L157.068997,0.405955951 L162.341998,0.405955951 L170.796446,22.1870541 L170.806826,22.1870541 Z M156.518861,13.1154999 L162.803905,13.1154999 L159.669168,4.69972081 L156.518861,13.1154999 L156.518861,13.1154999 Z" id="Shape"></path>
                        <polygon id="Path" points="179.930778 13.2247958 177.927453 13.2247958 177.927453 22.1870541 173.599025 22.1870541 173.599025 0.405955951 177.927453 0.405955951 177.927453 9.22769104 179.977488 9.22769104 187.160395 0.405955951 192.589094 0.405955951 183.480712 11.0336746 193.268979 22.1870541 187.653441 22.1870541 179.925588 13.2247958"></polygon>
                        <polygon id="Path" points="200.021119 22.1870541 195.692691 22.1870541 195.692691 0.405955951 200.021119 0.405955951"></polygon>
                        <polygon id="Path" points="224.377609 22.1870541 220.313869 22.1870541 209.300771 7.64029918 209.285201 22.1870541 204.956773 22.1870541 204.956773 0.405955951 209.004943 0.405955951 220.033611 14.9527109 220.033611 0.405955951 224.377609 0.405955951 224.377609 22.1870541 224.377609 22.1870541"></polygon>
                        <path d="M247.976364,3.34653431 L244.857197,6.4120222 C243.632366,4.99638093 241.83145,4.12721883 239.615336,4.12721883 C235.645016,4.12721883 232.759397,7.0521835 232.759397,11.2991073 C232.759397,15.5460311 235.785145,18.5334505 239.537487,18.5334505 C243.077041,18.5334505 245.137455,16.8211491 245.713541,13.7244339 L240.191422,13.7244339 L240.191422,10.1020577 L250.182098,10.1020577 C250.228808,10.5236273 250.244378,10.9243787 250.244378,11.3303347 C250.244378,17.9245166 245.791391,22.5773963 239.630906,22.5773963 C233.470422,22.5773963 228.27527,18.3304725 228.27527,11.2991073 C228.27527,4.72053907 233.070795,0 239.739895,0 C243.18603,0 246.056079,1.24389067 247.976364,3.34653431 L247.976364,3.34653431 Z" id="Path"></path>
                        <polygon id="Path" points="285.785234 22.1870541 281.456806 22.1870541 281.456806 5.74063351 276.090386 20.0844104 271.51284 20.0844104 266.14642 5.86554303 266.14642 22.1870541 261.817992 22.1870541 261.817992 0.405955951 268.165315 0.405955951 273.811993 15.1088478 279.443101 0.405955951 285.790424 0.405955951 285.790424 22.1870541 285.790424 22.1870541"></polygon>
                        <path d="M312.503157,11.2939027 C312.503157,17.7944025 307.769912,22.5878055 301.085241,22.5878055 C294.400571,22.5878055 289.682896,17.7944025 289.682896,11.2939027 C289.682896,4.79340296 294.400571,0 301.085241,0 C307.769912,0 312.503157,4.79340296 312.503157,11.2939027 Z M294.198162,11.2939027 C294.198162,15.5252128 297.099351,18.4189501 301.085241,18.4189501 C305.071132,18.4189501 307.97232,15.5252128 307.97232,11.2939027 C307.97232,7.06259263 305.086702,4.16885534 301.085241,4.16885534 C297.083781,4.16885534 294.198162,7.06259263 294.198162,11.2939027 Z" id="Shape"></path>
                        <path d="M334.861511,13.4902285 C334.861511,19.5119085 331.03132,22.5773963 325.5092,22.5773963 C319.987081,22.5773963 316.15689,19.5119085 316.15689,13.4902285 L316.15689,0.405955951 L320.500887,0.405955951 L320.500887,13.2716369 C320.500887,16.8523765 322.519783,18.4189501 325.5092,18.4189501 C328.498618,18.4189501 330.522703,16.847172 330.522703,13.2716369 L330.522703,0.405955951 L334.866701,0.405955951 L334.866701,13.4902285 L334.866701,13.4902285 L334.861511,13.4902285 Z" id="Path"></path>
                        <polygon id="Path" points="358.974073 22.1870541 354.910333 22.1870541 343.897234 7.64029918 343.881664 22.1870541 339.553236 22.1870541 339.553236 0.405955951 343.601406 0.405955951 354.630075 14.9527109 354.630075 0.405955951 358.974073 0.405955951 358.974073 22.1870541 358.974073 22.1870541"></polygon>
                        <path d="M376.614752,14.2500948 C376.614752,19.7096819 373.355456,22.5721918 368.82462,22.5721918 C365.222786,22.5721918 363.068952,21.0004136 361.890831,19.553545 L364.402772,16.3943749 C365.285066,17.4821287 366.618886,18.4189501 368.622211,18.4189501 C370.916174,18.4189501 372.281134,16.9876952 372.281134,13.8441388 L372.281134,0.400751387 L376.609562,0.400751387 L376.609562,14.2448902 L376.609562,14.2448902 L376.614752,14.2500948 Z" id="Path"></path>
                        <path d="M400.831113,22.1870541 L396.206857,22.1870541 L394.312521,17.1178093 L385.04844,17.1178093 L383.154104,22.1870541 L378.638837,22.1870541 L387.093285,0.405955951 L392.366285,0.405955951 L400.820733,22.1870541 L400.831113,22.1870541 L400.831113,22.1870541 Z M386.543149,13.1154999 L392.828192,13.1154999 L389.693455,4.69972081 L386.543149,13.1154999 Z" id="Shape"></path>
                        <path d="M412.809544,0.405955951 C417.989126,0.405955951 420.765755,2.86250991 420.765755,7.03136525 C420.765755,10.6121049 418.284954,13.0530452 414.112224,13.4590011 L420.796895,22.1870541 L415.555034,22.1870541 L409.223281,13.5214559 L407.95174,13.5214559 L407.95174,22.1870541 L403.623312,22.1870541 L403.623312,0.405955951 L412.809544,0.405955951 L412.809544,0.405955951 Z M407.95174,4.4030607 L407.95174,9.73773826 L412.731695,9.73773826 C415.087937,9.73773826 416.317958,8.86857616 416.317958,7.03136525 C416.317958,5.19415434 415.030848,4.4030607 412.731695,4.4030607 L407.95174,4.4030607 Z" id="Shape"></path>
                        <path d="M446.461255,11.2939027 C446.461255,17.7944025 441.72801,22.5878055 435.04334,22.5878055 C428.358669,22.5878055 423.640994,17.7944025 423.640994,11.2939027 C423.640994,4.79340296 428.358669,0 435.04334,0 C441.72801,0 446.461255,4.79340296 446.461255,11.2939027 Z M428.156261,11.2939027 C428.156261,15.5252128 431.057449,18.4189501 435.04334,18.4189501 C439.02923,18.4189501 441.930419,15.5252128 441.930419,11.2939027 C441.930419,7.06259263 439.0448,4.16885534 435.04334,4.16885534 C431.041879,4.16885534 428.156261,7.06259263 428.156261,11.2939027 Z" id="Shape"></path>
                    </g>
                    <g transform="translate(189.1118, 32.0497)">
                        <path d="M2.01889505,24.4562438 C9.41459031,13.9274118 23.5728055,1.56136904 46.7200342,1.56136904 C72.410344,1.56136904 88.3175762,17.9921759 88.3175762,39.1279082 C88.3175762,55.0798952 81.9546833,64.1722676 67.002404,76.8557888 L57.141477,85.2299314 L89.3555685,85.2299314 L89.3555685,115.301899 L7.74861264,115.301899 L7.74861264,88.1809189 L44.0991036,58.1922242 C50.9394729,52.6077276 53.1659664,48.1422121 53.1659664,43.7547651 C53.1659664,38.1702685 48.9517176,34.0222314 43.222,34.0222314 C35.0270507,34.0222314 29.1416343,40.7205046 23.8115437,47.1845724 L2.01889505,24.4510392 L2.01889505,24.4510392 L2.01889505,24.4562438 Z" id="Path" fill="#5D0095"></path>
                        <path d="M90.917747,116.873677 L6.18124424,116.873677 L6.18124424,87.4470754 L43.1026309,56.9847654 C48.9828574,52.1861579 51.598598,48.1109847 51.598598,43.7599697 C51.598598,39.0290215 48.0746141,35.5940096 43.2168101,35.5940096 C35.9871936,35.5940096 30.6986228,41.2982111 25.0156148,48.1890532 L23.8997731,49.5422397 L0,24.6123807 L0.742164506,23.5558543 C6.92340875,14.760142 21.1179537,0 46.7200342,0 C59.4717698,0 70.3654991,3.9034226 78.2231009,11.2834936 C85.7433553,18.3460862 89.8849446,28.2347568 89.8849446,39.1383173 C89.8849446,56.3654224 82.5203891,65.7596595 68.0144465,78.0632475 L61.4076254,83.6737669 L90.917747,83.6737669 L90.917747,116.878882 L90.917747,116.878882 L90.917747,116.873677 Z M9.31079108,113.730121 L87.7933901,113.730121 L87.7933901,86.796505 L52.8753286,86.796505 L65.9955515,75.6587392 C74.0659417,68.8147382 78.8303265,63.6622204 81.9287335,58.4160204 C85.2710688,52.7638645 86.7605877,46.8150484 86.7605877,39.1227036 C86.7605877,29.0987144 82.9719158,20.0167511 76.0900267,13.5578878 C68.8188906,6.72950057 58.6673257,3.12273808 46.7252241,3.12273808 C23.5209059,3.12273808 10.2449842,15.9311688 4.05335999,24.3053114 L23.7285043,44.8321097 C28.3994698,39.2319994 34.6378036,32.4556578 43.222,32.4556578 C49.7821115,32.4556578 54.7281449,37.3115155 54.7281449,43.7547651 C54.7281449,49.1362837 51.7542969,53.9661186 45.0851963,59.410092 L9.31079108,88.9251715 L9.31079108,113.735326 L9.31079108,113.735326 L9.31079108,113.730121 Z" id="Shape" fill="#D4B8E0"></path>
                    </g>
                    <g transform="translate(283.7041, 34.1107)">
                        <path d="M46.3619268,39.1487264 L48.0330944,39.1487264 C75.2336831,39.1487264 92.4954953,49.36008 92.4954953,74.6438493 C92.4954953,101.207941 71.4969107,115.322717 44.7686086,115.322717 C26.7127323,115.322717 11.8383024,110.534519 1.97737536,103.196085 L15.8190029,74.6386447 C20.0332517,77.6677007 32.6033387,82.6172405 41.9867892,82.6172405 C51.3702397,82.6172405 56.067155,80.1450729 56.067155,75.5962844 C56.067155,70.6519491 51.6920173,69.4548995 44.6129097,69.4548995 L11.8434923,69.4548995 L16.2186299,1.57698273 L83.7348401,1.57698273 L83.7348401,32.8460001 L47.0002921,32.8460001 L46.3619268,39.1487264 L46.3619268,39.1487264 L46.3619268,39.1487264 Z" id="Path" fill="#5D0095"></path>
                        <path d="M44.7686086,116.889291 C27.3459076,116.889291 11.8227325,112.475821 1.04318228,104.455589 L0,103.680109 L15.2169674,72.2809775 L16.7220562,73.3635267 C20.9778247,76.42381 33.2209441,81.0454624 41.9815992,81.0454624 C46.4864859,81.0454624 49.8392011,80.4937787 51.9463255,79.4112294 C53.6849626,78.5160445 54.4945966,77.3033812 54.4945966,75.5910799 C54.4945966,72.7650019 52.8389989,71.0162686 44.6025298,71.0162686 L10.1619448,71.0162686 L14.7394909,0 L85.2866387,0 L85.2866387,34.4021645 L48.4015817,34.4021645 L48.0798041,37.5665391 C62.5078973,37.5717437 73.7130243,40.4602764 81.3837875,46.1384552 C89.7863353,52.3631131 94.0472938,61.9447144 94.0472938,74.6282356 C94.0472938,87.3117568 89.0597407,98.6264778 79.6192006,106.157481 C70.8222157,113.173233 58.7711249,116.878882 44.7634186,116.878882 L44.7634186,116.889291 L44.7686086,116.889291 L44.7686086,116.889291 Z M3.95994069,102.696446 C14.1530252,109.837108 28.5811184,113.756144 44.7737986,113.756144 C58.0704801,113.756144 69.4468759,110.2847 77.6833449,103.716541 C86.3505808,96.8048806 90.9333169,86.7496639 90.9333169,74.6438493 C90.9333169,62.5380347 87.0979352,54.2731879 79.5361612,48.6730776 C72.405154,43.3904457 61.8020625,40.7153 48.0330944,40.7153 L44.6336696,40.7153 L45.5886225,31.2794265 L82.1726617,31.2794265 L82.1726617,3.1487609 L17.6821991,3.1487609 L13.50947,67.8935305 L44.6129097,67.8935305 C48.8323485,67.8935305 51.6193579,68.3151001 53.6486329,69.2571261 C56.2903233,70.4801985 57.6293334,72.6192741 57.6293334,75.6066936 C57.6293334,81.3056906 52.3667124,84.1942233 41.9867892,84.1942233 C33.3818329,84.1942233 22.015817,80.1815048 16.4573682,76.9182435 L3.95994069,102.701651 L3.95994069,102.701651 L3.95994069,102.696446 Z" id="Shape" fill="#D4B8E0"></path>
                    </g>
                    <path d="M433.57458,85.6306828 L416.411377,102.842174 C415.721113,103.534381 414.600081,103.534381 413.909816,102.842174 L396.746613,85.6306828 C395.630771,84.5117017 396.419645,82.6016269 397.997394,82.6016269 L432.3238,82.6016269 C433.901548,82.6016269 434.690422,84.5117017 433.57458,85.6306828" id="Path" fill="#F94242"></path>
                    <g transform="translate(384.763, 42.9012)" fill="#5D0095">
                        <polygon id="Path" points="0 0.416365078 7.43202498 0.416365078 7.43202498 16.9356495 17.9053675 16.9356495 17.9053675 23.7536277 0.00518996158 23.7536277 0.00518996158 0.416365078 0 0.416365078"></polygon>
                        <path d="M19.2547575,0.416365078 L31.1916691,0.416365078 C37.9905188,0.416365078 39.4696578,3.60155792 39.4696578,7.00013787 C39.4696578,8.89980354 38.5198949,10.9816289 36.3297311,12.0173371 C38.2915365,12.8032261 39.9056146,14.7185055 39.9056146,17.2531279 C39.9056146,20.9535725 38.3278663,23.7536277 31.8092745,23.7536277 L19.2599474,23.7536277 L19.2599474,0.416365078 L19.2547575,0.416365078 L19.2547575,0.416365078 Z M26.6867824,6.28190811 L26.6867824,9.21728191 L30.0965872,9.21728191 C31.2591386,9.21728191 31.8092745,8.64998449 31.8092745,7.73398132 C31.8092745,6.81797815 31.2798984,6.28190811 30.0965872,6.28190811 L26.6867824,6.28190811 Z M26.6867824,14.9006652 L26.6867824,17.8828801 L30.5117841,17.8828801 C31.8248444,17.8828801 32.3075108,17.2010823 32.3075108,16.4151932 C32.3075108,15.6293041 31.8248444,14.9006652 30.5117841,14.9006652 L26.6867824,14.9006652 L26.6867824,14.9006652 Z" id="Shape"></path>
                        <path d="M58.0652902,8.61875711 C56.73666,7.73398132 53.2801456,6.33395374 50.934283,6.33395374 C49.7873014,6.33395374 49.174886,6.4692724 49.174886,7.13545652 C49.174886,7.6507083 49.9378103,8.035846 51.9826552,8.38455175 L53.6434429,8.68641643 C59.7260779,9.75335195 61.5062347,12.5377934 61.5062347,15.785441 C61.5062347,22.1870541 56.202094,24.1856065 51.2353007,24.1856065 C46.6992743,24.1856065 42.9417421,23.2175576 40.2325822,21.3855513 L43.356939,15.2858029 C45.5367229,16.6702168 48.6247501,17.9349257 51.5674583,17.9349257 C52.7144398,17.9349257 53.2490058,17.633061 53.2490058,17.0501499 C53.2490058,16.3995795 52.3355726,15.9311688 50.654025,15.6501224 L48.6247501,15.3014166 C43.0559213,14.3333678 40.9643668,11.7519043 40.9643668,7.90052735 C40.9643668,2.74800951 45.2668449,0 50.6384551,0 C53.5811634,0 56.4045025,0.0312273808 61.2778764,2.6647365 L58.0704801,8.61355255 L58.0652902,8.61355255 L58.0652902,8.61875711 Z" id="Path"></path>
                    </g>
                </g>
                <polygon id="Path" fill="#5D0096" points="459.015772 45.9823183 462 45.9823183 462 48.6262365 459.015772 48.6262365 459.015772 50.4426292 462 50.4426292 462 53.091752 459.015772 53.091752 459.015772 55.392169 456.197623 55.392169 456.197623 53.091752 453.213395 53.091752 453.213395 50.4426292 456.197623 50.4426292 456.197623 48.6262365 453.213395 48.6262365 453.213395 45.9823183 456.197623 45.9823183 456.197623 43.6819012 459.015772 43.6819012"></polygon>
            </g>
        </g>
    </g>
</svg>